name analog
datacolumns 19
datarows 41
range 0.4185 0.4385
endheader
time	ground_force_vx	ground_force_vy	ground_force_vz	ground_force_px	ground_force_py	ground_force_pz	l_ground_force_vx	l_ground_force_vy	l_ground_force_vz	l_ground_force_px	l_ground_force_py	l_ground_force_pz	ground_torque_x	ground_torque_y	ground_torque_z	l_ground_torque_x	l_ground_torque_y	l_ground_torque_z
0.4185	-0.0	-0.0	-0.0	-0.0	-0.0	-0.0	1.8106085062026975	-1.2833069562911987	-514.4097290039062	-0.0	-0.0	-0.0	-0.0	-0.0	-0.0	158360.171875	31787.47265625	352.28204345703125
0.419	-0.0	-0.0	-0.0	-0.0	-0.0	-0.0	2.4562551975250244	-1.1264017820358276	-516.5267333984375	-0.0	-0.0	-0.0	-0.0	-0.0	-0.0	158332.375	31787.30078125	471.4630126953125
0.4195	-0.0	-0.0	-0.0	-0.0	-0.0	-0.0	2.858651161193848	-0.6928728818893433	-516.744384765625	-0.0	-0.0	-0.0	-0.0	-0.0	-0.0	158496.421875	31585.98046875	777.7236328125
0.42	-0.0	-0.0	-0.0	-0.0	-0.0	-0.0	4.149141788482666	-0.5501062273979187	-518.0870971679688	-0.0	-0.0	-0.0	-0.0	-0.0	-0.0	158652.171875	31366.822265625	945.283935546875
0.4205	-0.0	-0.0	-0.0	-0.0	-0.0	-0.0	4.783344268798828	-0.3261819183826446	-519.5098876953125	-0.0	-0.0	-0.0	-0.0	-0.0	-0.0	159249.921875	31335.154296875	1436.2965087890625
0.421	-0.0	-0.0	-0.0	-0.0	-0.0	-0.0	5.718141078948975	-0.0269816350191831	-521.632568359375	-0.0	-0.0	-0.0	-0.0	-0.0	-0.0	159758.0625	31338.13671875	1747.2296142578125
0.4215	-0.0	-0.0	-0.0	-0.0	-0.0	-0.0	6.228834629058838	-0.0268293786793947	-523.5374145507812	-0.0	-0.0	-0.0	-0.0	-0.0	-0.0	160369.3125	31058.326171875	2003.5557861328125
0.422	-0.0	-0.0	-0.0	-0.0	-0.0	-0.0	7.4517059326171875	-0.4765653610229492	-524.583984375	-0.0	-0.0	-0.0	-0.0	-0.0	-0.0	160474.875	31184.482421875	2157.211181640625
0.4225	-0.0	-0.0	-0.0	-0.0	-0.0	-0.0	7.629127502441406	-0.3001783192157745	-525.7698974609375	-0.0	-0.0	-0.0	-0.0	-0.0	-0.0	160531.71875	31153.99609375	2133.79296875
0.423	-0.0	-0.0	-0.0	-0.0	-0.0	-0.0	7.123379707336426	0.0619208738207817	-526.9219360351562	-0.0	-0.0	-0.0	-0.0	-0.0	-0.0	161235.375	31524.833984375	2157.256103515625
0.4235	-0.0	-0.0	-0.0	-0.0	-0.0	-0.0	6.929029941558838	-0.1109975948929786	-526.7140502929688	-0.0	-0.0	-0.0	-0.0	-0.0	-0.0	161076.3125	31598.1953125	1933.062255859375
0.424	-0.0	-0.0	-0.0	-0.0	-0.0	-0.0	6.134169578552246	0.8570814728736877	-524.8782348632812	-0.0	-0.0	-0.0	-0.0	-0.0	-0.0	160767.140625	31760.564453125	1686.6527099609375
0.4245	-0.0	-0.0	-0.0	-0.0	-0.0	-0.0	5.197418212890625	0.8468591570854187	-523.4296264648438	-0.0	-0.0	-0.0	-0.0	-0.0	-0.0	160869.453125	32165.267578125	1364.0941162109375
0.425	-0.0	-0.0	-0.0	-0.0	-0.0	-0.0	4.740630149841309	1.5897903442382812	-524.5280151367188	-0.0	-0.0	-0.0	-0.0	-0.0	-0.0	160887.15625	32116.263671875	1227.95263671875
0.4255	-0.0	-0.0	-0.0	-0.0	-0.0	-0.0	3.942004680633545	2.4713551998138428	-525.8666381835938	-0.0	-0.0	-0.0	-0.0	-0.0	-0.0	160942.328125	32222.552734375	1113.95166015625
0.426	-0.0	-0.0	-0.0	-0.0	-0.0	-0.0	4.004822731018066	3.747854709625244	-526.3231201171875	-0.0	-0.0	-0.0	-0.0	-0.0	-0.0	161701.5	32698.138671875	1173.576171875
0.4265	-0.0	-0.0	-0.0	-0.0	-0.0	-0.0	3.7641777992248535	4.226722240447998	-528.1658325195312	-0.0	-0.0	-0.0	-0.0	-0.0	-0.0	162233.03125	32918.7421875	1232.7916259765625
0.427	-0.0	-0.0	-0.0	-0.0	-0.0	-0.0	4.144185543060303	4.214156627655029	-528.266357421875	-0.0	-0.0	-0.0	-0.0	-0.0	-0.0	162290.25	32881.60546875	1279.5714111328125
0.4275	-0.0	-0.0	-0.0	-0.0	-0.0	-0.0	4.435539245605469	4.90830135345459	-529.5635986328125	-0.0	-0.0	-0.0	-0.0	-0.0	-0.0	162592.46875	32956.22265625	1411.277587890625
0.428	-0.0	-0.0	-0.0	-0.0	-0.0	-0.0	4.409650802612305	5.274282455444336	-531.0595703125	-0.0	-0.0	-0.0	-0.0	-0.0	-0.0	163120.359375	32963.41015625	1695.3260498046875
0.4285	-0.0	-0.0	-0.0	-0.0	-0.0	-0.0	5.233936309814453	5.564266204833984	-531.6054077148438	-0.0	-0.0	-0.0	-0.0	-0.0	-0.0	163226.65625	33376.19140625	1831.779052734375
0.429	-0.0	-0.0	-0.0	-0.0	-0.0	-0.0	4.9660725593566895	5.9794087409973145	-533.3501586914062	-0.0	-0.0	-0.0	-0.0	-0.0	-0.0	163430.609375	33277.38671875	2073.2236328125
0.4295	-0.0	-0.0	-0.0	-0.0	-0.0	-0.0	5.411357879638672	5.890707015991211	-533.0970458984375	-0.0	-0.0	-0.0	-0.0	-0.0	-0.0	163719.109375	33266.57421875	2081.82763671875
0.43	-0.0	-0.0	-0.0	-0.0	-0.0	-0.0	5.194333076477051	5.43927526473999	-535.3087158203125	-0.0	-0.0	-0.0	-0.0	-0.0	-0.0	163595.296875	33456.96484375	2132.676025390625
0.4305	-0.0	-0.0	-0.0	-0.0	-0.0	-0.0	5.637636661529541	4.732889175415039	-533.7440185546875	-0.0	-0.0	-0.0	-0.0	-0.0	-0.0	163501.265625	33539.30078125	2238.183349609375
0.431	-0.0	-0.0	-0.0	-0.0	-0.0	-0.0	6.0967698097229	4.139035224914551	-535.804443359375	-0.0	-0.0	-0.0	-0.0	-0.0	-0.0	163448.734375	33763.65234375	2480.93212890625
0.4315	-0.0	-0.0	-0.0	-0.0	-0.0	-0.0	5.943622589111328	3.697488307952881	-537.2493286132812	-0.0	-0.0	-0.0	-0.0	-0.0	-0.0	163561.09375	33824.3046875	2484.83203125
0.432	-0.0	-0.0	-0.0	-0.0	-0.0	-0.0	5.636791706085205	3.785881996154785	-536.64599609375	-0.0	-0.0	-0.0	-0.0	-0.0	-0.0	163687.859375	33920.640625	2423.812744140625
0.4325	-0.0	-0.0	-0.0	-0.0	-0.0	-0.0	5.706570625305176	4.10362434387207	-537.6465454101562	-0.0	-0.0	-0.0	-0.0	-0.0	-0.0	163653.3125	34017.48828125	2306.931884765625
0.433	-0.0	-0.0	-0.0	-0.0	-0.0	-0.0	4.967803955078125	3.1148834228515625	-536.4369506835938	-0.0	-0.0	-0.0	-0.0	-0.0	-0.0	163526.890625	34251.6328125	2391.2421875
0.4335	-0.0	-0.0	-0.0	-0.0	-0.0	-0.0	4.547825813293457	2.5199520587921143	-537.2515869140625	-0.0	-0.0	-0.0	-0.0	-0.0	-0.0	163247.859375	34666.83984375	2169.34912109375
0.434	-0.0	-0.0	-0.0	-0.0	-0.0	-0.0	4.181122303009033	2.384685516357422	-537.8779296875	-0.0	-0.0	-0.0	-0.0	-0.0	-0.0	162982.953125	34828.828125	1921.665771484375
0.4345	-0.0	-0.0	-0.0	-0.0	-0.0	-0.0	3.189072132110596	2.3775794506073	-536.1312255859375	-0.0	-0.0	-0.0	-0.0	-0.0	-0.0	163246.15625	35339.84375	1667.9549560546875
0.435	-0.0	-0.0	-0.0	-0.0	-0.0	-0.0	2.1174824237823486	3.3024790287017822	-537.8148193359375	-0.0	-0.0	-0.0	-0.0	-0.0	-0.0	163112.96875	35420.08203125	1323.0465087890625
0.4355	-0.0	-0.0	-0.0	-0.0	-0.0	-0.0	1.7512062788009644	4.02029275894165	-536.736572265625	-0.0	-0.0	-0.0	-0.0	-0.0	-0.0	162891.6875	35740.859375	1048.2021484375
0.436	-0.0	-0.0	-0.0	-0.0	-0.0	-0.0	1.8514835834503172	3.95451021194458	-538.1216430664062	-0.0	-0.0	-0.0	-0.0	-0.0	-0.0	162879.28125	36044.99609375	1137.20751953125
0.4365	-0.0	-0.0	-0.0	-0.0	-0.0	-0.0	2.040348052978516	3.612079381942749	-537.433837890625	-0.0	-0.0	-0.0	-0.0	-0.0	-0.0	163089.109375	36265.390625	1177.5283203125
0.437	-0.0	-0.0	-0.0	-0.0	-0.0	-0.0	1.685504913330078	3.7303059101104736	-538.6074829101562	-0.0	-0.0	-0.0	-0.0	-0.0	-0.0	163354.359375	36616.171875	1043.5919189453125
0.4375	-0.0	-0.0	-0.0	-0.0	-0.0	-0.0	1.2419509887695312	2.8050427436828613	-538.480224609375	-0.0	-0.0	-0.0	-0.0	-0.0	-0.0	163117.25	36882.671875	957.6111450195312
0.438	-0.0	-0.0	-0.0	-0.0	-0.0	-0.0	1.0204399824142456	3.731194019317627	-538.3040161132812	-0.0	-0.0	-0.0	-0.0	-0.0	-0.0	163032.53125	36936.05859375	624.6182861328125
0.4385	-0.0	-0.0	-0.0	-0.0	-0.0	-0.0	1.5746101140975952	3.334137439727783	-538.8282470703125	-0.0	-0.0	-0.0	-0.0	-0.0	-0.0	163285.96875	37105.125	654.5840454101562
